<svg width="90" height="90" viewBox="0 0 90 90" fill="none" xmlns="http://www.w3.org/2000/svg">
<circle opacity="0.5" cx="45" cy="45" r="45" fill="#FFC78B"/>
<circle cx="44.9997" cy="44.9997" r="36.5094" fill="#FFC78B"/>
<g clip-path="url(#clip0_1_1132)">
<path fill-rule="evenodd" clip-rule="evenodd" d="M46.4318 65.3028L45.0386 67.8426L43.6485 65.309C44.1003 65.359 44.5522 65.3933 45.0009 65.3933C45.4716 65.3933 45.9549 65.359 46.4318 65.3028ZM50.3292 58.2107L47.0845 64.1171C46.9684 64.139 46.8461 64.1577 46.7299 64.1733C46.1526 64.2575 45.5658 64.3106 44.9978 64.3106C44.4298 64.3106 43.8399 64.2575 43.2625 64.1733C43.1746 64.1608 43.0868 64.1421 42.9958 64.1296L39.7542 58.2263C39.9331 58.2481 40.1151 58.2606 40.3191 58.2606C41.7123 58.2606 42.4529 57.6865 43.1872 57.1092C43.6861 56.7255 44.1851 56.3354 44.9915 56.3354C45.798 56.3354 46.2938 56.7255 46.7958 57.1092C47.5301 57.6865 48.2707 58.2606 49.664 58.2606C49.9056 58.2606 50.1221 58.245 50.3292 58.2107Z" fill="white"/>
<path fill-rule="evenodd" clip-rule="evenodd" d="M45.0008 36.7939H44.9914C41.2133 36.7971 37.7804 38.3353 35.292 40.8096C32.813 43.2776 31.2722 46.6817 31.2659 50.4322V50.454V50.4634C31.2691 54.2169 32.8161 57.6335 35.3045 60.1078C36.8578 61.6491 38.7814 62.8254 40.9278 63.4932L38.9759 59.8488C38.2887 59.412 37.6517 58.9065 37.0775 58.3355C35.0472 56.3199 33.7857 53.5305 33.7826 50.4634V50.454V50.4322C33.7857 47.3682 35.0503 44.585 37.0743 42.5694C39.1015 40.5506 41.9037 39.2963 44.9914 39.2963H45.0008H45.0228C48.098 39.2994 50.8939 40.5537 52.9211 42.5694H52.9274C54.9576 44.585 56.2159 47.3744 56.2191 50.4446V50.454V50.4759C56.2128 53.5367 54.9576 56.3168 52.9274 58.3355C52.4033 58.8566 51.8259 59.3215 51.2077 59.7334L49.2245 63.4432C51.3113 62.7693 53.1909 61.6086 54.7097 60.0984C57.1919 57.6304 58.7326 54.2232 58.7357 50.479V50.4571V50.4478C58.7326 46.6911 57.1887 43.2776 54.7003 40.8034L54.7034 40.8002C52.2213 38.3322 48.7915 36.8033 45.0228 36.7971" fill="white"/>
<path fill-rule="evenodd" clip-rule="evenodd" d="M51.4589 37.1839C47.1504 34.9655 42.8514 35.0966 38.5367 37.1839C38.5367 35.1059 38.5367 33.134 38.5367 31.0497C41.6464 27.3835 48.6096 27.5551 51.4589 31.0497C51.4589 32.7814 51.4589 35.4491 51.4589 37.1839ZM55.397 32.7065V31.7923V27.3149V26.6378C55.397 26.4287 55.2401 26.2509 55.0299 26.2259L51.8793 25.8297L45.0009 22.9248L28.0182 30.0949L37.4102 32.5162V30.8906L37.5388 30.5411C37.8495 30.1729 38.2072 29.8297 38.59 29.5208C40.3755 28.0856 42.7729 27.3991 45.1327 27.421C47.4956 27.4459 49.8428 28.1854 51.5185 29.5895C51.8636 29.8796 52.1837 30.2041 52.4724 30.5536L52.5948 30.8906V32.5162L54.5654 32.0076V32.7065C54.374 32.8407 54.2454 33.0591 54.2454 33.3118C54.2454 33.5833 54.396 33.8173 54.6125 33.9452C54.4995 34.0014 54.3897 34.0794 54.2924 34.1855L54.0383 36.5724C54.2924 36.7783 54.6219 36.9031 54.9797 36.9031C55.3374 36.9031 55.6637 36.7783 55.9273 36.5724L55.6731 34.1855C55.5759 34.0794 55.466 33.9983 55.3531 33.9452C55.5727 33.8173 55.7171 33.5833 55.7171 33.3118C55.7202 33.0591 55.5916 32.8376 55.397 32.7065ZM61.9805 30.0949L56.2348 27.6674V31.5739L61.9805 30.0949Z" fill="white"/>
<path fill-rule="evenodd" clip-rule="evenodd" d="M39.3181 54.9595V38.1138H43.1119V54.3386C42.8577 54.4853 42.6255 54.6506 42.3933 54.8191C41.9414 55.1436 41.4896 55.4712 40.7584 55.4712C40.1308 55.4712 39.7135 55.231 39.3181 54.9595ZM46.8837 55.1779V38.9531H50.6775V55.7989C50.2853 56.0703 49.8648 56.3137 49.2341 56.3137C48.5061 56.3137 48.0542 55.9861 47.6023 55.6584C47.3701 55.4931 47.141 55.3246 46.8837 55.1779Z" fill="white"/>
</g>
<defs>
<clipPath id="clip0_1_1132">
<rect width="33.9623" height="44.9178" fill="white" transform="matrix(-1 0 0 1 61.9805 22.9248)"/>
</clipPath>
</defs>
</svg>
