<svg width="27" height="32" viewBox="0 0 27 32" fill="none" xmlns="http://www.w3.org/2000/svg">
<path d="M24.9696 12.0818L6.50694 0.701019C5.17121 -0.121316 3.55627 -0.155506 2.18689 0.609561C0.817512 1.3745 0 2.76782 0 4.33635V26.9942C0 29.3659 1.91099 31.3058 4.25973 31.3186C4.26614 31.3186 4.27255 31.3186 4.27884 31.3186C5.01283 31.3186 5.77771 31.0885 6.49211 30.6526C7.06681 30.302 7.24844 29.5519 6.89781 28.9772C6.54718 28.4025 5.79695 28.2209 5.22243 28.5715C4.88828 28.7753 4.56195 28.8808 4.27286 28.8807C3.38666 28.8759 2.43782 28.1167 2.43782 26.9942V4.33641C2.43782 3.66354 2.78852 3.066 3.37585 2.73784C3.96325 2.40967 4.65591 2.42433 5.22817 2.77667L23.6909 14.1574C24.2458 14.4991 24.5634 15.0688 24.562 15.7205C24.5607 16.3721 24.2408 16.9405 23.6829 17.281L10.3342 25.4542C9.76008 25.8057 9.5796 26.5561 9.93115 27.1302C10.2826 27.7044 11.0331 27.8848 11.6072 27.5333L24.9543 19.3611C26.2322 18.5815 26.9969 17.2224 27 15.7253C27.003 14.2284 26.2438 12.8662 24.9696 12.0818Z" fill="#090761"/>
</svg>
